<?xml version="1.0" encoding="utf-8"?>
<!-- Generator: Adobe Illustrator 24.2.0, SVG Export Plug-In . SVG Version: 6.00 Build 0)  -->
<svg version="1.1"
	 id="svg2383" xmlns:cc="http://creativecommons.org/ns#" xmlns:dc="http://purl.org/dc/elements/1.1/" xmlns:inkscape="http://www.inkscape.org/namespaces/inkscape" xmlns:rdf="http://www.w3.org/1999/02/22-rdf-syntax-ns#" xmlns:sodipodi="http://sodipodi.sourceforge.net/DTD/sodipodi-0.dtd" xmlns:svg="http://www.w3.org/2000/svg"
	 xmlns="http://www.w3.org/2000/svg" xmlns:xlink="http://www.w3.org/1999/xlink" x="0px" y="0px" viewBox="0 0 795.1 500.3"
	 style="enable-background:new 0 0 795.1 500.3;" xml:space="preserve">
<style type="text/css">
	.st0{fill:none;stroke:#000000;stroke-width:10;stroke-linejoin:round;}
	.st1{fill:none;stroke:#000000;stroke-width:6;stroke-linejoin:round;}
</style>
<path id="path2406" sodipodi:nodetypes="cssssssssssssssssssssssssssssssssssss" class="st0" d="M215.8,434.2
	c-37.7,3.3-75.6,5.8-113.4,7.8c-2.6,0.1-5.9,0.1-7.8-1.3c-2-1.4-3.1-4.6-3.9-7.2c-11.6-36.1-26.6-71.9-33.2-108.8
	c-4.6-25.6,0.8-52.7-0.7-78.8c-0.3-5.2-2-10.5-4.6-15c-9.2-16.1-21.9-30.7-30.6-46.9c-2.4-4.4-3.8-10.1-2.6-15
	c6-24.3,17.8-47.8,24.1-72.3c5.9-23,6.2-47.9,12.4-70.4c1.2-4.5,5.6-8.8,9.8-10.4c6.3-2.5,14.4-2.9,21.5-2
	c58,7.5,115.7,20.7,174,27.4c32.8,3.8,66.1,4.4,99,3.9c30-0.4,60.2-8.9,89.9-6.5c38.1,3.1,76.4,12.6,113.4,22.8
	c14.3,3.9,26.8,13.3,40.4,19.5c9.2,4.2,18.2,9.5,28,11.7c24.3,5.6,50.1,6.1,74.3,11.7c8.4,1.9,16.9,5.6,23.5,11.1
	c15.6,13,30.5,28.5,43,44.3c3.1,4,5.4,10.3,3.9,15c-5.2,15.9-17.3,30.8-24.1,46.9c-5.6,13.4-11,27.4-13,41.7
	c-2.8,19.4-5.1,40.2-1.3,59.3c5.6,28,21.5,54.7,29.3,82.1c0.9,3-1.1,6.8-3.3,9.1c-20.2,21.8-41,44.7-63.8,63.2
	c-6.5,5.2-15.8,7.1-24.1,7.8c-26.6,2.1-54.2,2.5-80.8,0.7c-7.5-0.5-14.7-4.4-21.5-7.8c-7.4-3.7-14-9-20.8-13.7
	c-10.9-7.5-20.4-18.1-32.6-22.8c-27.3-10.5-57.1-16.4-86-22.8c-10-2.2-20.4-4-30.6-3.3C340.9,419.7,278.4,428.6,215.8,434.2z"/>
<path id="path4194" sodipodi:nodetypes="csss" class="st1" d="M349.2,418.4c-11.9,1.7-20.4-14.6-31.8-12.5
	c-52.3,9.8-102.5,9.6-152.2,10.9c-10.3,0.3-23.7,21.9-33.3,21.3"/>
</svg>
