<?xml version="1.0" encoding="utf-8"?>
<!-- Generator: Adobe Illustrator 24.2.0, SVG Export Plug-In . SVG Version: 6.00 Build 0)  -->
<svg version="1.1"
	 id="svg4628" xmlns:cc="http://creativecommons.org/ns#" xmlns:dc="http://purl.org/dc/elements/1.1/" xmlns:inkscape="http://www.inkscape.org/namespaces/inkscape" xmlns:rdf="http://www.w3.org/1999/02/22-rdf-syntax-ns#" xmlns:sodipodi="http://sodipodi.sourceforge.net/DTD/sodipodi-0.dtd" xmlns:svg="http://www.w3.org/2000/svg"
	 xmlns="http://www.w3.org/2000/svg" xmlns:xlink="http://www.w3.org/1999/xlink" x="0px" y="0px" viewBox="0 0 842.8 305.9"
	 style="enable-background:new 0 0 842.8 305.9;" xml:space="preserve">
<style type="text/css">
	.st0{fill:none;stroke:#000000;stroke-width:6;}
	.st1{fill:none;stroke:#000000;stroke-width:10;}
</style>
<g id="layer1" transform="translate(752.60891,-209.48019)" inkscape:groupmode="layer" inkscape:label="Layer 1">
	<g id="use5199">
		<path id="path5192_2_" inkscape:connector-curvature="0" sodipodi:nodetypes="csssssssssssssssssssss" class="st0" d="
			M-510.3,466.7c-4.6-7.9-8-11-12.3-19c-4.2-7.9-7.5-10.2-10.8-18.5c-1.1-2.8-1.9-6-1.6-9c1.3-12.5,4.4-24.8,6.4-37.3
			c0.5-3,0.7-6,0.8-9c0-0.3,1.6-8.7,0.4-24.8c-0.1-1.4-1.1-3.4-2.5-3.5c-40.2-3.3-74.7-4.3-115.5-6.4c-13.7-0.7-14.7-14.4-28.3-15.5
			"/>
	</g>
	<g id="use5190">
		
			<path id="path4652_2_" inkscape:connector-curvature="0" sodipodi:nodetypes="cssssssssssssssssssssssssssssssssssssssssssssssssssssssssssssssssssssssssssssssssssss" class="st1" d="
			M-620.2,326.4c-21.6-1.2-43.4-1.8-64.9-3.5c-3.4-0.3-6.9-1.1-10-2.5c-4-1.7-7.9-3.9-11.3-6.6c-2.6-2-4.8-4.7-6.8-7.4
			c-2.3-3.1-4.5-6.5-6.1-10c-1.7-3.6-3.2-7.5-3.9-11.5c-0.7-4.3-0.6-8.9-0.2-13.3c0.3-3.2,1-6.5,2.3-9.4c1.6-3.6,4.1-7.1,6.6-10.2
			c2.7-3.5,5.5-7.2,9-9.8c4.3-3.2,9.3-6.3,14.5-7.8c7.8-2.2,16.3-2.6,24.6-3.1c55.5-3.3,111-6.1,166.6-8.2
			c12.7-0.5,25.4-0.1,38.1,0.6c81.6,4.6,163.4,8.5,244.8,15.2c25,2.1,49.9,6.5,74.6,11.1c20.9,3.9,41.7,8.8,62.3,14.3
			c44.2,11.8,88.3,24.2,131.9,37.5c2.9,0.9,5.9,2.8,7.6,5.1c1.6,2.2,2.1,5.5,2,8.4c-1.4,48.1-3.6,96.5-6.6,144.6
			c-0.2,3.3-1.3,6.7-2.9,9.6c-1.5,2.8-3.7,5.3-6.1,7.4c-2.6,2.2-5.8,4.1-9,5.3c-2.6,1-5.6,1.5-8.4,1.4c-28.6-0.7-57.4-2.1-86-3.9
			c-74.9-4.6-150.1-8.8-224.7-15.2c-4.9-0.4-9.6-2.9-13.9-5.1c-3.8-2-7.5-4.7-10.7-7.6c-2.6-2.4-5.2-5.3-6.8-8.4
			c-1.9-3.7-2.8-8-3.7-12.1c-0.9-3.9-1.7-7.9-1.6-11.9c0-4.6,0.6-9.3,1.8-13.7c1.3-4.5,3.3-9.1,5.9-12.9c2.6-3.6,6.3-6.7,9.8-9.4
			c3.4-2.6,7.1-5,11.1-6.6c4.9-1.9,10.2-3.2,15.4-3.7c4.6-0.4,9.4,0.2,13.9,1c63.4,11.7,126.5,25.4,189.9,36.7
			c5.2,0.9,10.6,0.5,15.8-0.2c4.5-0.6,9.2-1.7,13.3-3.7c4.4-2.1,8.4-5.4,12.1-8.6c3.1-2.7,6-5.8,8.2-9.2c2.1-3.2,3.6-7,4.7-10.7
			c1.2-4.1,1.9-8.5,2-12.7c0.1-4.2-0.4-8.6-1.4-12.7c-0.8-3.1-2.3-6.1-4.1-8.8c-2.5-3.8-5.5-7.5-8.8-10.7c-3-2.9-6.4-5.5-10-7.6
			c-3.2-1.9-6.8-3.3-10.4-4.3c-4-1.1-8.2-1.6-12.3-1.8c-102.1-6.4-204.3-12.8-306.5-18c-3.9-0.2-7.9,0.6-11.7,1.6
			c-3,0.9-6,2.4-8.6,4.1c-2.3,1.5-4.4,3.6-6.1,5.7c-1.9,2.3-3.4,4.9-4.7,7.6c-1.4,2.9-2.7,6-3.3,9.2c-0.6,3.7-0.4,7.7-0.2,11.5
			c0.2,4.3,0.4,8.7,1.2,12.9c4.3,23.1,9.6,46.1,13.9,69.2c0.7,3.6,1.1,7.4,1,11.1c0,4.4-0.4,8.8-1.2,13.1c-0.8,3.9-2.3,7.7-3.7,11.5
			c-1.3,3.7-2.5,7.5-4.5,10.9c-2.7,4.4-6,8.6-9.6,12.3c-4.2,4.2-8.9,8.3-13.9,11.5c-3.3,2.1-7.3,3-11.1,4.1
			c-4.3,1.3-8.7,2.6-13.1,3.1c-5.6,0.6-11.4,0.9-17,0.2c-5.4-0.6-10.9-2.1-16-4.1c-4.8-1.9-9.6-4.5-13.7-7.6
			c-4.8-3.5-9.5-7.6-13.1-12.3c-3.3-4.2-5.6-9.4-7.8-14.3c-2-4.5-3.7-9.3-4.9-14.1c-1.3-5.2-2.4-10.6-2.5-16
			c-0.1-5.2,0.5-10.6,2-15.6c2-6.5,5.3-12.6,8.6-18.6c3.6-6.7,8.1-12.9,12.1-19.5c3.3-5.4,7.2-10.7,9.8-16.4c1.6-3.4,3-7.5,2.9-11.1
			c-0.1-2.9-1.8-6.1-3.7-8.4c-3.1-3.6-7-6.5-11.3-8.4c-3.5-1.6-8-2-12.1-2.3C-547.3,330.6-583.7,328.5-620.2,326.4L-620.2,326.4z"/>
	</g>
</g>
</svg>
