<?xml version="1.0" encoding="utf-8"?>
<!-- Generator: Adobe Illustrator 24.2.0, SVG Export Plug-In . SVG Version: 6.00 Build 0)  -->
<svg version="1.1"
	 id="svg2383" xmlns:cc="http://creativecommons.org/ns#" xmlns:dc="http://purl.org/dc/elements/1.1/" xmlns:inkscape="http://www.inkscape.org/namespaces/inkscape" xmlns:rdf="http://www.w3.org/1999/02/22-rdf-syntax-ns#" xmlns:sodipodi="http://sodipodi.sourceforge.net/DTD/sodipodi-0.dtd" xmlns:svg="http://www.w3.org/2000/svg"
	 xmlns="http://www.w3.org/2000/svg" xmlns:xlink="http://www.w3.org/1999/xlink" x="0px" y="0px" viewBox="0 0 624.2 393.7"
	 style="enable-background:new 0 0 624.2 393.7;" xml:space="preserve">
<style type="text/css">
	.st0{fill:none;stroke:#00ADD4;stroke-width:6;stroke-linejoin:round;}
	.st1{fill:none;stroke:#000000;stroke-width:10;stroke-linejoin:round;}
</style>
<path id="path3835_1_" sodipodi:nodetypes="cssssssss" class="st0" d="M43.6,344.2c-1.5,7.7-1.5,7.7-1.1,12.4c0.1,2.1,1.7,3,2.9,4.6
	c0.8,1.1,2.4,2.3,3.9,2.3c55.4,0.8,133.2,1.2,213,0.6c4.3,0,9.1-0.4,12.8-2.1c3.5-1.6,6.8-4.8,8.9-7.9c1.8-2.6,2.3-6.1,2.7-9.3"/>
<path id="path3833" sodipodi:nodetypes="csssssssssssssssssssssssssssssssssssssssssss" class="st1" d="M240.6,379.3
	c34.6,0.5,48.9,2.5,48.4-10.4c-0.4-11.1-2.4-21.4-2.5-32.7c0-6.7,2.6-13.5,5.5-19.1c3.5-6.6,7.3-13,13.8-17.4
	c7.9-5.4,16.8-10,26-12.7c13.1-3.9,26.9-6.6,40.6-7.9c12.4-1.2,25.5-1,37.9,0.2c20.5,1.9,24.1,4.2,37.6,8.1
	c5.8,1.7,14.7,4.6,20.2,3.6c14.8-2.6,24-13.7,23.5-28.3c-0.2-7.4,0.2-14.5,0.6-21.5c0.2-4.5,4.8-8.9,10.7-7.3
	c10.1,2.7,19.1,6.5,30.2,7.9c5.5,0.6,14.5,3,17.6-1.6c4-5.9,2.3-18.9,1.4-27.6c-0.4-4.7-4.2-10.5-8-13.6
	c-40.8-33.2-81.7-60.7-121.4-94.1c-2.8-2.3-5.4-8.2-3.5-14.3c1.6-5.3,6.3-9.7,13.9-12.3c6.4-2.2,19.4-3.1,26.1-0.4
	c29.6,11.7,54.2,24,83.8,37.5c4.3,2,9.7,1.4,14.4,0.6c9.7-1.8,19.3-4.9,28.4-8.6c2.7-1.1,5.1-3.5,6.7-6c4.6-7.1,9.3-14.8,11.9-22.7
	c1.1-3.2,0.2-9.7-1.2-12.9c-6.8-14.9-13.4-28.1-23-41c-3.6-4.9-10.9-7.4-16.7-9.1c-5.3-1.6-10.8-1.4-16.4-0.8
	c-59.5,6.4-117.2,14-176.7,20.1c-3.2,0.3-7,2.5-8.1,4.9c-2.3,4.9,1.4,12.7,3.2,19.2c1.2,4.2,2.3,9.4,0.3,13.3
	c-27.1,51.7-52.9,101.6-84.5,150.6c-4.1,6.4-18.4,15.7-25.5,17.7C175.2,264,108.7,283,31.3,307.8c-6.4,2-12.2,4.2-11.7,9.8
	c0.4,5.1,1.3,9.9,5.5,12.1c4.8,2.5,15.8,1.8,19.4,4.7c2.7,2.1,1.4,9.5,0,13.8c-3.1,9.2-8.2,16.6-9.9,25.6c-0.4,1.8,2.8,4.8,4.9,4.8
	C106,379.5,173.4,378.3,240.6,379.3z"/>
</svg>
