<?xml version="1.0" encoding="utf-8"?>
<!-- Generator: Adobe Illustrator 24.2.0, SVG Export Plug-In . SVG Version: 6.00 Build 0)  -->
<svg version="1.1"
	 id="svg2383" xmlns:cc="http://creativecommons.org/ns#" xmlns:dc="http://purl.org/dc/elements/1.1/" xmlns:inkscape="http://www.inkscape.org/namespaces/inkscape" xmlns:rdf="http://www.w3.org/1999/02/22-rdf-syntax-ns#" xmlns:sodipodi="http://sodipodi.sourceforge.net/DTD/sodipodi-0.dtd" xmlns:svg="http://www.w3.org/2000/svg"
	 xmlns="http://www.w3.org/2000/svg" xmlns:xlink="http://www.w3.org/1999/xlink" x="0px" y="0px" viewBox="0 0 832.7 425.4"
	 style="enable-background:new 0 0 832.7 425.4;" xml:space="preserve">
<style type="text/css">
	.st0{fill:none;stroke:#000000;stroke-width:6;stroke-linejoin:round;}
	.st1{fill:none;stroke:#000000;stroke-width:10;stroke-linejoin:round;}
</style>
<path id="path3115_1_" inkscape:connector-curvature="0" sodipodi:nodetypes="csss" class="st0" d="M739.4,396.4c0,0,0,0.2-2.6-2.1
	l-7.2-2.5c-1.2-0.1-65.8-3.6-80.9-3c-28.6,0.8-35.7,2-68.6,2.6c-46.1,0.8-102.1,14.1-119.8,15.9"/>
<path id="path3113" inkscape:connector-curvature="0" sodipodi:nodetypes="sssssssssscsssssssssssccssss" class="st1" d="
	M546.5,405.9c-73.7,2.1-147,2.7-220.2,3.6c-15.1,0.2,0.3-20.9-16-14.4c-22.4,8.9-43.9,16.7-68.2,16.9c-22.8,0.2-55,0.5-69.9-4.5
	c-16.1-5.3-32.7-17.9-38.7-22.8c-11-9-21.7-22.8-29.5-41.9c-9.1-22-16.5-58.6-21.8-91c-2.9-17.6-10.7-59.4-12.7-75.2
	c-1.9-14.6-14.4-5.5-18.1-15.6c-15.3-42.2-34.9-74.4-36.3-80.2c-7.5-15.3-9.5-25.1-6.7-36c1.5-6,13-15.9,19.5-17.1
	c29.6-5.7,56.3-11.5,86.9-16.5c4.4-0.7,9.5,4.2,12,7.5c15,19.6,56.5,83.5,81.2,111.4c24.4,27.5,50.4,48.8,80.6,76.8
	c29.3,27.1,60.1,56.1,89.2,81.3c7.6,6.6,21.1-2,35.1-0.8c3.2,0.3,13.1,2.9,19.3,8.5c3.1,2.8,6.6,7.8,11.8,9.7
	c5.2,1.9,22,2.4,24.2,2.4c110.6-0.7,210.5-0.6,321.4,0.2c22.5,0,32.5,10.4,33.8,30.8c-0.2,7.3-0.9,15.4-6.8,23.2
	c-7.8,10.3-21.3,21.3-32.9,26.2c-21.1,8.8-42.6,9.4-64.2,11.9C664.2,406.5,603.4,404.3,546.5,405.9L546.5,405.9z"/>
</svg>
