<svg width="512" height="407" viewBox="0 0 512 407" fill="none" xmlns="http://www.w3.org/2000/svg">
<path d="M422.364 285.791C379.733 296.578 337.101 307.365 294.478 318.152C266.084 325.195 237.69 332.238 209.303 339.281C206.005 339.99 202.181 341.384 199.082 339.854C199.082 339.854 194.796 332.063 192.238 327.33C192.238 327.33 185.53 316.169 169.389 295.933L151.177 270.335L89.5282 147.436L23.1874 71.2565C23.1874 71.2565 13.5474 61.9192 27.2665 58.9475L84.5489 57.5294L124.551 65.1299L184 75.9809L238.455 81.4781L295.02 85.836C295.02 85.836 309.289 88.8395 303.09 102.965C303.09 102.965 286.384 136.243 249.035 140.673C249.035 140.673 239.857 143.947 199.504 136.068C199.504 136.068 171.19 126.635 157.709 133.08C157.709 133.08 138.884 140.633 139.991 161.339C139.991 161.339 140.429 166.231 143.369 172.277L170.528 222.692C170.528 222.692 186.637 241.144 208.347 227.074L234.869 199.365C234.869 199.365 247.744 189.988 264.841 188.849L397.132 189.144L428.929 189.159C428.929 189.159 441.413 189.438 446.225 200.887L460.82 255.986C460.82 255.986 464.326 265.65 453.929 270.717L422.364 285.791Z" stroke="black" stroke-width="5.84775" stroke-miterlimit="10"/>
<path d="M454.024 228.237L451.969 253.485C451.969 253.485 452.248 258.201 446.759 262.694C446.759 262.694 433.414 271.825 425.088 275.473L340.352 296.132L282.337 311.452L214.617 328.462L210.22 329.8C210.22 329.8 201.926 330.206 196.668 320.232C196.668 320.232 191.633 312.376 183.961 307.015L171.946 298.522" stroke="black" stroke-width="3.21865" stroke-miterlimit="10"/>
<rect x="326.225" y="307.083" width="6" height="5.8784" transform="rotate(-14.3289 326.225 307.083)" fill="white"/>
</svg>
