<svg width="512" height="407" viewBox="0 0 512 407" fill="none" xmlns="http://www.w3.org/2000/svg">
<path d="M421.391 291.5L220.108 342.363" stroke="black" stroke-width="10"/>
<path d="M219.891 342.5C200.391 347 199.391 343.5 194.391 335" stroke="black" stroke-width="10" stroke-linecap="round"/>
<path d="M194.391 335L151.891 275L98.8914 169" stroke="black" stroke-width="10"/>
<path d="M98.8914 169L90.3914 151L74.3914 133" stroke="black" stroke-width="10"/>
<path d="M74.3914 133L30.8914 83.5" stroke="black" stroke-width="10"/>
<path d="M30.8913 83.5C17.8914 69.5 18.3913 63 28.3913 63" stroke="black" stroke-width="10"/>
<path d="M27.8914 63L69.8914 62" stroke="black" stroke-width="10"/>
<path d="M69.8914 62H83.8914L98.8914 64.5" stroke="black" stroke-width="10"/>
<path d="M98.3914 64.5L167.891 77" stroke="black" stroke-width="10"/>
<path d="M166.891 77L182.891 80L205.891 82.5" stroke="black" stroke-width="10"/>
<path d="M205.391 82.5L285.891 89" stroke="black" stroke-width="10"/>
<path d="M285.391 89C305.393 90.3456 310.492 95.044 302.391 110" stroke="black" stroke-width="10" stroke-linecap="round" stroke-linejoin="bevel"/>
<path d="M302.391 110C268.845 150.242 245.191 150.971 200.391 140.5" stroke="black" stroke-width="10" stroke-linecap="round"/>
<path d="M136.796 171.47C137.883 174.008 140.823 175.184 143.361 174.096C145.899 173.008 147.075 170.069 145.987 167.531L136.796 171.47ZM201.985 135.761C173.536 126.191 155.393 130.47 145.083 140.55C140.071 145.451 137.295 151.399 136.094 156.864C134.925 162.184 135.136 167.597 136.796 171.47L145.987 167.531C145.397 166.153 144.983 163.004 145.861 159.011C146.706 155.164 148.649 151.049 152.074 147.7C158.64 141.28 172.247 136.309 198.797 145.239L201.985 135.761Z" fill="black"/>
<path d="M141.391 169.5L167.891 220" stroke="black" stroke-width="10"/>
<path d="M167.891 220C179.391 241.5 201.891 237.5 210.891 227.5" stroke="black" stroke-width="10"/>
<path d="M210.891 227.5L230.891 208" stroke="black" stroke-width="10" stroke-linecap="round"/>
<path d="M230.891 208C245.981 196.236 255.629 193.214 274.391 192.5" stroke="black" stroke-width="10"/>
<path d="M273.891 192.5L421.391 193" stroke="black" stroke-width="10"/>
<path d="M420.891 193C438.891 192 446.891 202.5 447.891 206.5" stroke="black" stroke-width="10"/>
<path d="M447.891 206.5L461.391 258.5" stroke="black" stroke-width="10"/>
<path d="M461.391 258.5C462.988 268.289 461.509 272.445 452.891 276.5" stroke="black" stroke-width="10" stroke-linecap="round"/>
<path d="M452.891 276.5L424.391 290.5L421.391 291.5" stroke="black" stroke-width="10" stroke-linecap="round"/>
<path d="M451.969 226L449.914 251.247C449.914 251.247 450.193 255.964 444.704 260.457C444.704 260.457 431.359 269.587 423.033 273.236L338.297 293.894L280.282 309.215L212.562 326.224L208.165 327.563C208.165 327.563 199.871 327.969 194.613 317.994C194.613 317.994 189.578 310.139 181.906 304.777L169.891 296.284" stroke="black" stroke-width="6" stroke-miterlimit="10"/>
<rect x="327.981" y="309.974" width="8" height="9.99556" transform="rotate(-14.4503 327.981 309.974)" fill="white"/>
</svg>
