<svg width="491" height="369" viewBox="0 0 491 369" fill="none" xmlns="http://www.w3.org/2000/svg">
<path d="M424.302 187.375C424.298 188.748 423.183 189.857 421.811 189.854C420.438 189.85 419.328 188.737 419.33 187.364C419.333 185.992 420.447 184.881 421.819 184.883C423.191 184.885 424.303 185.998 424.302 187.37" fill="white"/>
<path d="M44.7667 103.016C47.1032 85.8141 49.7191 73.7074 53.0631 56.5842C54.102 51.2647 58.6316 46.0655 61.0974 44.2207C65.1037 41.2233 73.3443 37.8133 78.3597 37.0382C92.9173 34.7884 103.851 35.0539 118.713 35.6944C131.52 36.2463 145.138 38.286 158.181 41.3493C169.069 43.9064 180.746 47.9276 191.948 48.6569C200.447 49.2103 207.912 46.9645 215.689 44.2252C218.796 43.1309 224.371 42.924 228.827 46.2551C233.54 49.7783 238.601 53.5286 243.787 56.6684C248.439 59.4853 253.543 62.2281 258.667 63.0433C263.918 63.8787 268.723 62.0039 274.041 60.4977C278.031 59.3677 280.681 56.1525 286.322 56.3497C291.371 56.5262 294.838 57.7907 298.253 59.8628C301.358 61.7465 304 64.6438 305.465 68.1591C308.398 75.1931 309.088 83.3253 312.436 90.1453C315.518 96.4223 320.461 102.118 325.765 106.864C356.01 133.927 386.997 161.097 417.13 189.033C432.904 203.657 447.845 218.535 461.701 234.597C465.074 238.507 467.791 244.545 467.941 249.479C468.089 254.374 465.856 260.217 462.974 264.238C460.087 268.268 455.351 271.19 450.578 272.95C442.074 276.085 429.585 275.082 421.49 279.471C403.137 289.422 386.307 297.872 366.121 307.582C360.979 310.056 361.334 313.907 362.396 315.869C364.185 319.174 367.268 322.533 367.355 325.862C367.478 330.598 365.776 336.077 361.736 339.985C357.86 343.734 352.099 346.855 346.558 347.44C340.847 348.043 333.802 346.822 328.833 343.894C322.408 340.106 317.361 333.273 312.376 327.291C287.499 297.44 265.163 272.198 238.426 244.204C230.579 235.988 239.402 222.742 242.212 218.922C243.96 216.546 255.935 195.237 257.775 184.125C259.53 173.525 251.183 156.57 242.005 144.343C233.136 132.528 226.027 126.297 227.087 122.75C228.147 119.203 227.087 116.612 245.5 116.612C265.409 115.895 270.05 110.475 257.775 98.2C233.225 79.7875 223.64 77.9148 207.775 89.1632C134.243 141.292 126.278 143.567 80.3181 185.921C77.017 187.396 74.873 192.146 75.5016 195.249C76.1642 198.519 79.5696 202.025 83.322 203.364C88.6377 205.262 94.8431 207.365 100.057 209.473C103.078 210.695 105.539 214.516 106.362 217.598C107.288 221.073 107.015 226.018 105.304 229.143C103.495 232.448 99.3216 235.243 95.7468 235.653C91.0944 236.187 85.5121 233.164 81.4628 229.886C70.3207 220.866 58.8101 212.191 49.9683 201.08C44.3266 193.99 35.9013 182.177 36.3835 173.301C37.6683 149.65 41.4162 127.682 44.7667 103.016L44.7667 103.016Z" stroke="black" stroke-width="6.29094" stroke-linejoin="round"/>
<path d="M257.257 192.114C257.327 192.499 243.239 229.692 247.709 242.471C288.743 286.68 308.732 319.375 323.3 318.37C328.073 317.619 331.481 316.13 334.081 315.243C343.363 312.076 360.605 299.452 373.433 292.921C392.228 283.352 391.869 284.733 399.627 280.721C406.348 277.361 418.914 272.253 423.21 278.078" stroke="black" stroke-width="2.76187" stroke-linejoin="round"/>
<rect x="298.951" y="316.213" width="6.32722" height="4" transform="rotate(-40.2592 298.951 316.213)" fill="#C4C4C4"/>
</svg>
